<?xml version="1.0" standalone="no"?>
<!DOCTYPE svg PUBLIC "-//W3C//DTD SVG 20010904//EN"
 "http://www.w3.org/TR/2001/REC-SVG-20010904/DTD/svg10.dtd">
<svg version="1.0" xmlns="http://www.w3.org/2000/svg"
 width="1600.000000pt" height="1600.000000pt" viewBox="0 0 1600.000000 1600.000000"
 preserveAspectRatio="xMidYMid meet">

<g transform="translate(0.000000,1600.000000) scale(0.100000,-0.100000)"
fill="#000000" stroke="none">
<path d="M7895 14523 c-523 -20 -914 -77 -1433 -209 -550 -139 -1125 -376
-1628 -670 -504 -294 -893 -593 -1323 -1017 -792 -782 -1362 -1749 -1676
-2846 -194 -678 -275 -1417 -235 -2131 62 -1097 401 -2169 974 -3080 290 -462
542 -777 940 -1176 516 -516 1054 -901 1721 -1229 270 -133 382 -182 624 -270
588 -213 1114 -327 1786 -386 280 -24 840 -12 1195 27 841 91 1792 404 2511
827 560 329 919 606 1374 1061 547 547 965 1146 1295 1854 327 704 517 1444
586 2282 29 366 9 955 -47 1350 -49 344 -157 815 -259 1120 -350 1057 -932
1972 -1734 2729 -341 322 -788 655 -1191 887 -217 124 -648 336 -835 409 -332
131 -781 268 -1080 329 -544 112 -1070 159 -1565 139z m1330 -1453 c384 -25
777 -66 950 -100 28 -6 122 -24 210 -41 167 -31 237 -46 370 -80 44 -11 109
-27 145 -35 105 -23 521 -154 590 -186 110 -50 128 -58 177 -77 47 -18 163
-77 253 -128 19 -11 77 -44 128 -72 120 -68 428 -295 542 -401 25 -22 88 -76
140 -118 125 -100 411 -387 481 -482 133 -180 181 -256 248 -395 197 -408 204
-428 248 -685 38 -226 39 -411 4 -485 -42 -88 -65 -111 -140 -140 l-70 -28
-158 22 c-210 28 -455 29 -615 1 -466 -80 -935 -329 -1504 -796 -718 -592
-1246 -1346 -1488 -2125 -58 -187 -104 -378 -130 -544 -38 -232 -41 -284 -41
-615 0 -332 1 -337 34 -535 28 -169 33 -226 34 -370 0 -202 -10 -250 -85 -403
-58 -117 -82 -141 -188 -190 -41 -18 -91 -43 -110 -53 -182 -102 -316 -129
-897 -179 -489 -43 -931 -36 -1433 21 -196 23 -530 72 -700 104 -47 8 -107 20
-135 25 -113 21 -221 45 -375 84 -58 15 -159 41 -225 57 -316 79 -504 143
-720 244 -38 17 -88 40 -110 50 -22 9 -58 25 -80 35 -22 10 -62 28 -90 40
-555 244 -1196 683 -1444 990 -20 25 -41 50 -47 55 -36 34 -175 237 -290 426
-119 195 -190 328 -264 494 -13 28 -33 73 -45 100 -39 85 -73 196 -90 290 -9
50 -22 108 -30 130 -15 47 -32 123 -40 185 -3 25 -10 74 -16 110 -17 116 -30
751 -18 910 21 292 97 688 175 920 119 349 357 832 554 1125 30 43 219 297
391 521 30 39 60 80 67 90 69 105 120 166 220 264 218 212 347 335 397 375 28
21 55 44 60 49 6 6 39 33 75 61 36 27 67 52 70 55 15 18 420 290 431 290 5 0
9 5 9 10 0 6 4 10 10 10 5 0 70 35 142 79 253 149 359 211 363 211 3 0 33 17
67 38 94 56 275 143 433 207 77 31 154 62 170 70 48 21 251 91 360 124 373
114 418 125 775 196 585 117 662 130 890 145 85 6 202 15 260 20 202 17 376
30 445 33 175 7 524 6 660 -3z m3931 -3590 c217 -21 470 -90 525 -142 8 -7 41
-36 74 -63 33 -28 74 -65 91 -84 48 -52 142 -241 159 -319 23 -113 36 -290 31
-432 -5 -136 -11 -182 -41 -320 -10 -41 -21 -93 -25 -115 -11 -51 -54 -203
-123 -430 -68 -223 -224 -592 -382 -906 -68 -135 -268 -447 -384 -599 -61 -80
-272 -298 -371 -384 -25 -21 -74 -66 -110 -100 -337 -315 -517 -456 -900 -698
-225 -142 -793 -436 -924 -478 -76 -25 -357 3 -434 43 -236 121 -354 213 -438
339 -111 169 -151 340 -161 703 -26 934 277 1775 926 2565 126 153 504 529
666 661 481 393 932 645 1300 726 182 40 341 50 521 33z"/>
<path d="M13230 10630 c-12 -7 -14 -29 -12 -104 3 -106 -11 -154 -61 -219 -46
-59 -116 -86 -267 -102 -67 -6 -148 -26 -360 -89 -178 -53 -240 -93 -240 -158
0 -53 66 -84 161 -75 30 3 140 10 244 16 392 23 444 29 545 62 237 78 270 117
258 302 -15 216 -171 429 -268 367z"/>
<path d="M11300 9451 c-95 -40 -236 -110 -310 -155 -384 -231 -687 -484 -926
-776 -16 -19 -32 -37 -35 -40 -11 -8 -164 -241 -194 -295 -15 -27 -47 -84 -71
-125 -92 -160 -222 -506 -244 -648 -6 -37 -19 -107 -30 -157 -45 -215 -57
-363 -31 -380 10 -6 41 22 62 55 9 14 35 81 59 150 27 80 93 226 181 402 114
225 167 317 286 495 80 120 149 220 152 223 4 3 29 34 56 70 63 83 78 100 146
174 31 34 69 76 84 94 79 94 354 330 580 497 66 48 122 91 125 94 3 4 55 48
115 98 174 143 208 187 189 237 -10 27 -116 20 -194 -13z"/>
<path d="M3647 9153 c-8 -13 10 -214 20 -222 11 -10 185 -61 206 -61 19 0 20
12 10 138 -7 95 1 87 -127 122 -40 10 -79 22 -88 25 -9 4 -18 3 -21 -2z"/>
<path d="M3939 9075 c-11 -10 3 -210 15 -221 10 -10 192 -64 216 -64 11 0 13
77 4 167 l-7 61 -99 27 c-55 14 -106 29 -112 31 -7 3 -14 2 -17 -1z"/>
<path d="M4228 8893 c2 -60 8 -112 12 -117 10 -10 222 -67 228 -61 3 2 1 54
-3 115 l-7 110 -52 14 c-28 8 -76 22 -108 30 -31 9 -60 16 -65 16 -4 0 -7 -48
-5 -107z"/>
<path d="M3375 8843 c4 -60 12 -113 19 -120 9 -10 193 -63 218 -63 10 0 -2
199 -13 221 -5 9 -21 19 -36 22 -16 3 -62 15 -103 26 -41 11 -79 21 -83 21 -5
0 -5 -48 -2 -107z"/>
<path d="M3394 8554 c4 -60 11 -113 15 -117 9 -9 186 -57 211 -57 13 0 15 13
8 107 -4 58 -11 110 -15 114 -10 9 -133 45 -187 55 l-39 7 7 -109z"/>
<path d="M4535 8533 c4 -60 12 -113 18 -119 13 -12 216 -68 223 -61 3 2 2 52
-2 111 -6 84 -10 109 -24 116 -19 10 -194 60 -211 60 -8 0 -10 -28 -4 -107z"/>
<path d="M5965 8433 c4 -60 12 -113 19 -120 10 -10 189 -63 216 -63 9 0 10 26
5 108 -4 59 -10 111 -14 115 -7 7 -205 66 -224 67 -5 0 -5 -48 -2 -107z"/>
<path d="M6256 8353 c3 -60 11 -113 18 -119 9 -10 123 -44 204 -61 25 -6 26
-1 15 135 -5 64 -10 85 -23 92 -15 8 -203 60 -216 60 -3 0 -2 -48 2 -107z"/>
<path d="M4262 8325 c2 -57 8 -109 14 -115 15 -15 218 -70 225 -62 9 9 -8 213
-18 222 -9 8 -193 60 -212 60 -10 0 -12 -23 -9 -105z"/>
<path d="M3408 8373 c-8 -13 10 -215 19 -223 11 -10 215 -62 221 -56 2 3 1 53
-3 111 -8 121 0 112 -124 144 -46 13 -90 25 -97 28 -6 2 -14 1 -16 -4z"/>
<path d="M6544 8273 c4 -59 10 -111 15 -116 7 -7 205 -66 224 -67 11 0 -3 212
-15 226 -5 7 -19 14 -31 17 -12 3 -58 14 -101 26 -44 12 -84 21 -89 21 -6 0
-7 -41 -3 -107z"/>
<path d="M4553 8245 c3 -59 10 -112 16 -118 10 -10 184 -57 211 -57 13 0 15
13 12 78 -2 42 -7 93 -11 112 -7 34 -10 36 -84 57 -43 12 -94 25 -114 29 l-36
7 6 -108z"/>
<path d="M5691 8273 c1 -32 4 -84 8 -117 l6 -59 90 -23 c50 -13 101 -27 114
-30 l24 -7 -6 113 c-3 61 -8 114 -11 117 -6 6 -204 63 -218 63 -4 0 -8 -26 -7
-57z"/>
<path d="M3987 8118 c3 -57 10 -108 17 -114 6 -7 52 -23 101 -37 141 -40 130
-43 126 36 -1 38 -6 89 -9 114 l-7 46 -100 29 c-144 40 -134 46 -128 -74z"/>
<path d="M5120 8153 c0 -27 3 -78 6 -115 l7 -66 111 -31 c61 -17 113 -27 117
-23 6 7 -7 197 -15 218 -2 6 -17 14 -33 17 -15 4 -59 16 -98 27 -97 27 -95 27
-95 -27z"/>
<path d="M3423 8039 c4 -30 7 -76 7 -104 0 -27 4 -56 9 -63 8 -13 177 -62 214
-62 18 0 19 5 14 68 -4 37 -7 86 -7 109 l0 42 -82 25 c-46 14 -101 28 -122 32
l-39 7 6 -54z"/>
<path d="M4568 8065 c-10 -10 4 -210 16 -221 6 -6 49 -21 96 -33 47 -11 96
-24 109 -27 l24 -7 -7 109 c-4 60 -11 112 -14 116 -6 6 -202 68 -215 68 -2 0
-6 -2 -9 -5z"/>
<path d="M7695 7973 c8 -114 12 -133 29 -133 7 0 49 -11 92 -25 43 -14 89 -25
102 -25 l24 0 -7 98 c-8 123 -10 128 -43 136 -15 3 -58 15 -97 26 -113 32
-108 36 -100 -77z"/>
<path d="M5708 7958 c6 -133 9 -139 72 -159 81 -25 160 -42 167 -36 3 4 2 55
-3 114 l-9 108 -95 27 c-143 41 -138 44 -132 -54z"/>
<path d="M3717 8014 c-9 -9 6 -210 17 -220 12 -13 183 -64 211 -64 15 0 16 11
10 108 -4 59 -10 110 -14 113 -11 11 -218 69 -224 63z"/>
<path d="M6853 7913 c4 -67 11 -111 19 -118 7 -7 51 -22 98 -34 47 -12 94 -25
104 -28 18 -5 19 0 14 106 -3 62 -8 115 -12 118 -6 6 -203 63 -219 63 -6 0 -8
-40 -4 -107z"/>
<path d="M7985 7888 c4 -62 10 -116 14 -119 11 -10 221 -62 227 -56 3 3 2 54
-3 114 l-8 108 -93 27 c-51 14 -104 29 -118 32 l-26 7 7 -113z"/>
<path d="M8274 7813 c4 -66 11 -112 19 -119 13 -12 216 -68 223 -61 2 2 1 52
-3 111 -5 83 -10 109 -22 115 -17 9 -200 61 -215 61 -4 0 -5 -48 -2 -107z"/>
<path d="M7421 7808 c1 -35 4 -88 7 -118 l7 -55 84 -22 c47 -12 98 -25 114
-29 l30 -6 -6 112 c-4 62 -8 115 -11 117 -4 4 -206 62 -218 63 -5 0 -8 -28 -7
-62z"/>
<path d="M3445 7698 c3 -62 10 -116 13 -119 11 -9 222 -63 227 -57 5 5 -13
220 -19 225 -4 5 -209 63 -220 63 -5 0 -5 -49 -1 -112z"/>
<path d="M6571 7783 c1 -65 17 -185 26 -194 7 -7 205 -69 220 -69 5 0 1 113
-6 174 -5 53 -9 60 -31 67 -112 31 -182 49 -195 49 -10 0 -15 -9 -14 -27z"/>
<path d="M4585 7674 c4 -60 11 -113 15 -117 9 -10 186 -57 213 -57 19 0 20 5
13 77 -3 42 -6 91 -6 109 0 33 -1 34 -82 58 -46 14 -100 28 -121 32 l-39 7 7
-109z"/>
<path d="M5727 7653 c3 -60 11 -113 17 -119 16 -16 215 -64 222 -53 3 5 2 54
-2 109 -5 77 -11 103 -23 109 -16 9 -199 61 -213 61 -4 0 -4 -48 -1 -107z"/>
<path d="M6869 7723 c-2 -30 3 -197 7 -207 4 -11 191 -66 224 -66 10 0 11 24
6 107 -4 60 -10 111 -14 115 -7 7 -193 58 -212 58 -6 0 -10 -3 -11 -7z"/>
<path d="M6304 7498 c4 -57 13 -108 19 -114 7 -7 58 -25 115 -42 85 -25 104
-28 109 -16 3 8 1 60 -3 116 l-9 101 -100 28 c-149 42 -139 48 -131 -73z"/>
<path d="M7438 7573 c-6 -10 8 -213 15 -220 8 -7 188 -53 210 -53 19 0 19 5
12 102 -4 55 -9 106 -11 112 -2 6 -41 21 -87 34 -120 32 -134 34 -139 25z"/>
<path d="M8581 7488 c0 -40 4 -93 7 -117 l7 -44 105 -29 c58 -15 110 -26 115
-24 10 3 2 212 -8 223 -5 4 -207 62 -219 63 -5 0 -8 -33 -7 -72z"/>
<path d="M4604 7393 c3 -65 11 -112 19 -119 6 -6 32 -17 57 -23 25 -7 71 -19
103 -28 32 -9 60 -13 63 -10 7 6 -12 216 -19 223 -6 6 -206 64 -220 64 -7 0
-8 -37 -3 -107z"/>
<path d="M5745 7363 c4 -60 11 -112 16 -117 8 -9 180 -56 207 -56 9 0 12 24
11 88 -2 135 0 133 -104 164 -50 15 -101 27 -114 27 l-23 1 7 -107z"/>
<path d="M3751 7358 c2 -142 -1 -138 109 -170 144 -40 134 -47 127 79 -3 58
-10 110 -15 115 -5 5 -48 20 -96 33 -47 13 -95 27 -106 30 -19 6 -20 2 -19
-87z"/>
<path d="M6885 7343 c4 -60 12 -113 19 -119 16 -17 215 -63 222 -53 9 15 -7
209 -18 215 -12 7 -207 64 -220 64 -6 0 -7 -42 -3 -107z"/>
<path d="M6035 7392 c-7 -7 -5 -102 3 -171 l7 -53 83 -24 c45 -13 97 -25 115
-26 l32 -3 -3 95 c-4 118 -7 129 -40 136 -15 3 -64 16 -109 29 -45 12 -85 20
-88 17z"/>
<path d="M4040 7260 l0 -111 33 -13 c40 -17 207 -60 211 -55 5 6 -13 221 -18
227 -3 2 -47 15 -98 28 -51 14 -101 27 -110 30 -16 5 -18 -5 -18 -106z"/>
<path d="M8306 7343 c-9 -9 6 -209 17 -219 8 -8 220 -65 225 -60 9 10 -10 215
-21 224 -12 8 -35 16 -146 47 -62 17 -65 17 -75 8z"/>
<path d="M7455 7291 c-9 -15 8 -211 19 -220 9 -8 202 -61 221 -61 6 0 -2 165
-10 206 -4 18 -20 26 -82 43 -43 11 -93 25 -110 30 -18 5 -35 6 -38 2z"/>
<path d="M4332 7181 c1 -60 6 -112 10 -116 8 -8 186 -57 213 -59 12 -1 19 5
18 14 -1 8 -4 59 -8 112 l-7 97 -46 15 c-45 14 -168 46 -179 46 -2 0 -3 -49
-1 -109z"/>
<path d="M8599 7266 c-2 -2 -3 -52 -1 -111 3 -98 5 -107 25 -114 41 -16 132
-40 176 -47 l44 -7 -7 104 c-4 57 -13 109 -19 116 -7 7 -55 24 -107 38 -101
27 -104 27 -111 21z"/>
<path d="M5761 7103 c2 -149 -3 -142 119 -175 58 -15 109 -28 114 -28 8 0 0
220 -9 228 -4 4 -205 62 -216 62 -5 0 -8 -39 -8 -87z"/>
<path d="M6903 7053 c3 -58 10 -110 15 -115 4 -4 52 -20 106 -34 92 -23 134
-26 122 -6 -3 5 -6 50 -7 100 -1 53 -6 96 -13 101 -14 12 -184 61 -210 61 -18
0 -19 -6 -13 -107z"/>
<path d="M8035 7033 c4 -60 10 -111 14 -114 3 -4 49 -19 101 -33 52 -15 103
-30 114 -33 17 -5 18 1 11 108 -4 63 -8 115 -10 117 -5 6 -207 62 -222 62 -13
0 -14 -16 -8 -107z"/>
<path d="M5190 6991 c0 -37 3 -89 6 -114 l6 -45 97 -26 c53 -15 104 -29 115
-33 18 -5 18 0 11 108 -4 63 -9 116 -11 118 -5 6 -197 61 -211 61 -9 0 -13
-20 -13 -69z"/>
<path d="M7474 6903 c5 -77 11 -111 22 -119 15 -12 171 -54 199 -54 12 0 15
14 14 73 0 113 -10 149 -39 158 -98 28 -181 49 -191 49 -9 0 -10 -29 -5 -107z"/>
<path d="M2676 6968 c-10 -14 -16 -44 -16 -78 0 -240 180 -641 423 -945 85
-105 208 -221 352 -329 145 -110 245 -151 307 -127 14 5 29 19 33 31 8 26 -23
93 -66 140 -88 97 -129 142 -203 220 -194 205 -487 586 -563 735 -11 22 -29
56 -40 75 -11 19 -41 76 -68 125 -90 168 -125 202 -159 153z"/>
<path d="M8615 6981 c-10 -17 7 -210 19 -220 10 -8 202 -61 220 -61 10 0 -3
212 -13 223 -4 4 -45 18 -92 31 -46 12 -94 26 -106 30 -12 4 -24 2 -28 -3z"/>
<path d="M7761 6864 c0 -38 4 -89 7 -113 l7 -44 95 -28 c144 -43 139 -45 133
54 -9 141 -7 139 -96 164 -43 12 -93 25 -112 29 l-35 6 1 -68z"/>
<path d="M6917 6873 c-6 -12 10 -210 18 -222 3 -6 13 -11 20 -11 8 0 54 -11
101 -25 47 -14 91 -25 97 -25 10 0 2 218 -8 228 -4 5 -205 62 -217 62 -4 0 -9
-3 -11 -7z"/>
<path d="M6066 6718 c4 -62 9 -116 13 -119 7 -7 202 -59 220 -59 10 0 11 24 6
108 -4 59 -10 110 -14 114 -6 7 -136 46 -204 62 l-27 6 6 -112z"/>
<path d="M6356 6742 c-9 -15 6 -212 18 -220 16 -12 217 -64 223 -58 10 10 -9
215 -20 224 -7 5 -52 19 -101 32 -50 12 -95 24 -102 27 -7 2 -15 0 -18 -5z"/>
<path d="M7488 6719 c-5 -14 10 -207 16 -218 8 -12 215 -65 223 -58 3 4 2 55
-3 114 l-9 108 -40 13 c-43 15 -172 52 -179 52 -2 0 -6 -5 -8 -11z"/>
<path d="M8633 6594 c4 -66 12 -113 20 -120 15 -14 191 -58 209 -52 9 3 12 27
10 85 -5 132 -6 134 -93 159 -41 11 -92 24 -113 28 l-39 7 6 -107z"/>
<path d="M6644 6633 c3 -21 6 -71 6 -111 0 -70 1 -73 28 -83 40 -16 206 -58
210 -54 6 6 -10 211 -17 222 -5 9 -198 63 -223 63 -7 0 -8 -13 -4 -37z"/>
<path d="M8647 6413 c-6 -12 9 -208 17 -222 4 -6 13 -11 20 -11 7 0 41 -9 74
-19 34 -11 78 -23 98 -27 l37 -7 -6 109 c-4 59 -11 112 -16 117 -8 8 -194 67
-213 67 -4 0 -9 -3 -11 -7z"/>
<path d="M7796 6361 c-8 -12 4 -205 13 -219 6 -10 187 -62 216 -62 16 0 17 9
11 98 -4 53 -9 104 -12 113 -4 14 -38 26 -154 57 -19 6 -42 13 -51 17 -10 3
-20 2 -23 -4z"/>
<path d="M8086 6281 c-2 -3 -2 -54 1 -113 5 -87 9 -108 22 -112 80 -24 202
-56 212 -56 14 0 4 209 -11 224 -11 11 -219 65 -224 57z"/>
<path d="M8377 6204 c-10 -10 4 -208 17 -220 9 -10 86 -33 205 -61 l23 -6 -7
109 c-4 60 -12 114 -19 120 -6 7 -50 21 -98 33 -47 11 -92 23 -100 26 -8 3
-17 3 -21 -1z"/>
<path d="M4770 5814 c0 -102 4 -193 10 -203 5 -10 26 -22 46 -26 20 -3 44 -10
53 -15 18 -10 202 -70 214 -70 4 0 6 91 5 201 -3 167 -6 203 -18 210 -8 5 -55
20 -105 35 -49 14 -109 32 -133 40 -76 25 -72 35 -72 -172z"/>
<path d="M5170 5682 c0 -148 3 -202 13 -209 11 -9 316 -113 331 -113 3 0 5 95
4 212 l-3 211 -25 8 c-14 4 -74 23 -135 42 -60 20 -127 38 -147 42 l-38 7 0
-200z"/>
<path d="M5600 5547 c0 -203 0 -207 23 -221 21 -13 329 -116 348 -116 5 0 9
91 9 215 0 214 0 215 -22 225 -44 17 -291 92 -324 97 l-34 6 0 -206z"/>
<path d="M6067 5403 c-6 -195 -5 -209 13 -224 19 -16 346 -129 375 -129 13 0
15 29 15 219 0 163 -3 221 -12 228 -7 5 -56 22 -108 37 -52 16 -130 39 -173
52 -43 13 -84 24 -91 24 -10 0 -14 -47 -19 -207z"/>
<path d="M6566 5463 c-3 -4 -6 -104 -6 -223 0 -162 3 -220 13 -227 19 -16 406
-145 416 -139 10 7 3 458 -7 467 -4 4 -43 17 -87 29 -44 12 -129 37 -190 57
-60 19 -115 36 -122 38 -6 2 -14 1 -17 -2z"/>
<path d="M9133 5274 c-46 -23 -142 -128 -208 -228 -62 -94 -86 -120 -194 -201
-95 -72 -188 -117 -381 -185 -64 -23 -277 -77 -370 -95 -41 -8 -104 -22 -140
-30 -202 -48 -650 -82 -952 -71 -257 9 -520 23 -538 30 -31 11 -306 36 -397
36 -123 0 -181 -14 -194 -48 -30 -80 49 -147 256 -217 212 -71 341 -91 765
-115 91 -5 255 -15 365 -22 110 -7 362 -13 560 -12 308 1 382 4 515 22 297 41
326 47 595 116 233 59 287 86 387 195 133 143 198 302 198 479 -1 178 -58 307
-152 347 -47 19 -74 19 -115 -1z"/>
<path d="M13075 6853 c-35 -19 -86 -55 -136 -98 -59 -50 -81 -68 -149 -120
-36 -28 -71 -56 -79 -63 -7 -7 -26 -21 -40 -30 -14 -9 -58 -40 -98 -69 -111
-82 -394 -273 -403 -273 -5 0 -10 -4 -12 -8 -3 -8 -189 -123 -283 -175 -74
-41 -283 -142 -335 -162 -25 -9 -53 -21 -62 -26 -10 -5 -34 -13 -55 -18 -21
-5 -74 -20 -118 -32 -64 -19 -105 -23 -210 -23 -123 0 -133 1 -190 29 -68 32
-153 113 -180 172 -34 73 -100 162 -140 188 -35 23 -47 26 -100 22 -75 -7
-154 -31 -189 -58 -73 -57 -106 -184 -106 -404 0 -141 18 -279 46 -364 61
-183 184 -314 349 -371 60 -21 88 -24 190 -24 103 0 139 5 250 34 119 30 218
65 335 118 25 11 80 34 124 52 70 28 138 62 207 102 22 13 217 144 274 185 17
11 77 51 135 89 96 62 183 128 235 179 11 11 76 72 145 135 133 122 153 142
240 237 118 128 266 324 324 427 13 23 43 73 68 111 89 140 115 214 86 243
-17 17 -87 14 -123 -5z"/>
</g>
</svg>
